<svg xmlns="http://www.w3.org/2000/svg" viewBox="0 0 109 89"><defs><style>.cls-1{fill:#ffffff;fill-rule:evenodd;}</style></defs><title>logo</title><g id="Layer_2" data-name="Layer 2"><g id="Capa_1" data-name="Capa 1"><polygon class="cls-1" points="26 59 26 70 73 70 82 70 84 70 84 39 82 39 73 39 37 39 37 28 84 28 84 18 37 18 28 18 26 18 26 49 28 49 37 49 73 49 73 59 26 59"/><polygon class="cls-1" points="103 78 103 49.84 103 39.71 103 39 90 39 90 49 92 49 92 78 14 78 14 59 4 59 4 78 0 78 0 89 93.05 89 103.45 89 109 89 109 78 103 78"/><polygon class="cls-1" points="0 0 0 11 4 11 4 39.44 4 49 20 49 20 39 14 39 14 11 92 11 92 30 103 30 103 11 109 11 109 0 0 0"/></g></g></svg>